<svg width="16" height="16" viewBox="0 0 16 16" fill="none" xmlns="http://www.w3.org/2000/svg">
<g clip-path="url(#clip0)">
<path d="M4.41768 3.64098C4.18693 3.41004 3.81256 3.41004 3.58181 3.64098C2.72506 4.49773 2.30397 5.69123 2.42634 6.91567C2.45687 7.2207 2.71384 7.44807 3.01393 7.44807C3.03365 7.44807 3.05353 7.44707 3.07325 7.4451C3.39818 7.4126 3.63522 7.12273 3.60272 6.79801C3.51562 5.92785 3.81278 5.08176 4.41768 4.47682C4.64862 4.2461 4.64862 3.8717 4.41768 3.64098Z" fill="#868789"/>
<path d="M6.75863 0C3.03191 0 0 3.03191 0 6.75863C0 10.4853 3.03191 13.5173 6.75863 13.5173C10.4853 13.5173 13.5173 10.4853 13.5173 6.75863C13.5173 3.03191 10.4853 0 6.75863 0ZM6.75863 12.335C3.68375 12.335 1.18228 9.8335 1.18228 6.75863C1.18228 3.68375 3.68375 1.18228 6.75863 1.18228C9.83331 1.18228 12.335 3.68375 12.335 6.75863C12.335 9.8335 9.8335 12.335 6.75863 12.335Z" fill="#868789"/>
<path d="M15.8268 14.9912L11.5312 10.6957C11.3002 10.4647 10.9262 10.4647 10.6953 10.6957C10.4644 10.9264 10.4644 11.3008 10.6953 11.5315L14.9909 15.8271C15.1064 15.9426 15.2575 16.0003 15.4088 16.0003C15.5602 16.0003 15.7113 15.9426 15.8268 15.8271C16.0577 15.5964 16.0577 15.222 15.8268 14.9912Z" fill="#868789"/>
</g>
<defs>
<clipPath id="clip0">
<rect width="16" height="16" fill="white"/>
</clipPath>
</defs>
</svg>
