<svg width="24" height="24" viewBox="0 0 24 24" fill="none" xmlns="http://www.w3.org/2000/svg">
<path d="M21.9283 20.243L20.2113 17.381C19.4183 16.06 18.9993 14.547 18.9993 13.007V10.5C18.9993 7.335 16.8873 4.65802 13.9993 3.795V2.00002C13.9993 0.897 13.1023 0 11.9993 0C10.8963 0 9.99926 0.897 9.99926 2.00002V3.795C7.11129 4.65802 4.99929 7.335 4.99929 10.5V13.007C4.99929 14.547 4.58027 16.059 3.78827 17.38L2.07129 20.242C1.97829 20.397 1.97627 20.589 2.06529 20.746C2.1543 20.903 2.3193 21 2.4993 21H21.4993C21.6793 21 21.8453 20.9031 21.9343 20.7471C22.0233 20.591 22.0203 20.397 21.9283 20.243Z" fill="#B0BAC5"/>
<path d="M8.85059 22C9.41459 23.178 10.6086 24 11.9996 24C13.3905 24 14.5846 23.178 15.1486 22H8.85059Z" fill="#B0BAC5"/>
</svg>
