<svg width="35" height="16" viewBox="0 0 35 16" fill="none" xmlns="http://www.w3.org/2000/svg">
<path d="M23.5003 7.81801L21.9596 10.4865C21.9596 10.4865 21.9458 10.4785 21.9372 10.4736C20.249 9.49884 19.0217 9.55974 18.2496 9.62391C18.0632 9.64035 17.9529 9.42964 18.0563 9.25048L19.3931 6.93516C20.0793 6.8605 21.4989 6.66943 23.5003 7.81801Z" fill="#667587"/>
<path d="M23.1557 7.61888C22.7051 8.39926 22.2546 9.17965 21.804 9.96003C21.7413 10.0686 21.6777 10.1788 21.615 10.2873C21.7971 10.2386 21.9764 10.1905 22.1585 10.1417C21.5 9.75463 20.7715 9.44889 20.0191 9.30391C19.4985 9.20315 18.9698 9.17588 18.4419 9.21103C18.3962 9.21453 18.3533 9.21729 18.3076 9.22079C18.2834 9.22291 18.2568 9.22131 18.2351 9.22713C18.2306 9.22686 18.2262 9.2266 18.2235 9.22733C18.2627 9.22701 18.3004 9.23729 18.3366 9.25818C18.3297 9.2542 18.3245 9.25122 18.3176 9.24724C18.3548 9.2664 18.3843 9.29491 18.4034 9.33348C18.3879 9.30849 18.3826 9.27788 18.4138 9.36708C18.4063 9.34435 18.4055 9.29796 18.4164 9.39843C18.4085 9.33647 18.4136 9.4152 18.4121 9.4258C18.4195 9.36119 18.4318 9.43946 18.4026 9.45018C18.4053 9.44946 18.4106 9.4364 18.4125 9.43296C18.4769 9.34146 18.5269 9.23485 18.5826 9.13837C18.8064 8.75077 19.0292 8.36488 19.253 7.97727C19.4151 7.69647 19.5772 7.41567 19.7403 7.13315C19.6258 7.20024 19.5123 7.26561 19.3977 7.33271C19.7673 7.2934 20.1345 7.26197 20.507 7.2772C20.6323 7.28294 20.7557 7.29212 20.8787 7.30575C20.9885 7.31857 20.8072 7.29433 20.8982 7.30781C20.9317 7.31339 20.9663 7.31724 20.9998 7.32282C21.0696 7.33325 21.1401 7.34639 21.2106 7.35953C21.5269 7.4204 21.8381 7.50593 22.1426 7.6151C22.2377 7.64933 22.3328 7.68356 22.4266 7.72395C22.3389 7.68482 22.4084 7.71572 22.43 7.72593C22.4544 7.73542 22.4795 7.74762 22.5039 7.75711C22.5534 7.77879 22.6029 7.80048 22.6531 7.82488C22.876 7.92827 23.0928 8.04199 23.3075 8.1636C23.4893 8.26631 23.7521 8.209 23.8509 8.01798C23.9497 7.82695 23.8992 7.58419 23.7053 7.47452C22.7462 6.92768 21.6924 6.54894 20.5848 6.48602C20.2651 6.46684 19.947 6.48072 19.6279 6.51236C19.5696 6.51777 19.5104 6.52491 19.4521 6.53033C19.2852 6.54883 19.1464 6.5904 19.051 6.73974C19.0157 6.79288 18.9873 6.85 18.9555 6.90512C18.6253 7.47706 18.2941 8.05072 17.9639 8.62266C17.8774 8.77254 17.7819 8.92188 17.704 9.07673C17.4977 9.48588 17.7498 10.0357 18.2444 10.0226C18.4023 10.0196 18.5595 9.99789 18.7157 9.9939C18.8979 9.98879 19.0814 9.98911 19.2642 10.0028C19.3148 10.0067 19.3653 10.0106 19.4159 10.0145C19.4381 10.0159 19.4593 10.0189 19.4832 10.0212C19.4983 10.023 19.5133 10.0248 19.5283 10.0266C19.5823 10.0325 19.5089 10.0246 19.4938 10.0228C19.6075 10.0447 19.7226 10.0561 19.8363 10.0781C20.0838 10.1268 20.3285 10.1923 20.566 10.2743C20.6315 10.296 20.6978 10.3205 20.7623 10.344C20.7963 10.3567 20.8303 10.3695 20.8616 10.3829C20.8764 10.3892 20.8911 10.3954 20.9042 10.4006C20.9598 10.4236 20.8121 10.3612 20.9076 10.4026C21.051 10.4647 21.1916 10.5275 21.3299 10.5982C21.4779 10.6721 21.6228 10.7512 21.7641 10.8328C21.9492 10.9419 22.2001 10.8732 22.3076 10.6872C22.7581 9.90679 23.2087 9.12641 23.6592 8.34602C23.7219 8.23749 23.7855 8.12724 23.8482 8.01871C23.9526 7.83782 23.8936 7.57405 23.7026 7.47525C23.5081 7.37445 23.2671 7.42593 23.1557 7.61888Z" fill="#667587"/>
<path d="M26.5688 2.45547L26.5912 2.4684L25.0476 5.14204C23.0462 3.99346 21.6267 4.18452 20.9404 4.25919L22.3746 1.77505C22.4194 1.69753 22.4981 1.64878 22.5771 1.63926C23.2471 1.55293 24.6273 1.33455 26.5688 2.45547Z" fill="#667587"/>
<path d="M26.3709 2.79803C26.3777 2.80201 26.3864 2.80698 26.3932 2.81096C26.3445 2.6289 26.2964 2.44956 26.2476 2.2675C25.7961 3.04961 25.3455 3.82999 24.894 4.6121C24.8303 4.72235 24.7667 4.8326 24.702 4.94458C24.8841 4.8958 25.0634 4.84774 25.2455 4.79896C24.109 4.14968 22.8271 3.74031 21.5075 3.80993C21.3162 3.81895 21.1269 3.84056 20.9358 3.86117C21.0504 4.06055 21.1677 4.2592 21.2823 4.45858C21.6712 3.785 22.06 3.11143 22.4489 2.43785C22.5255 2.3052 22.6031 2.17083 22.6797 2.03818C22.6827 2.03301 22.7207 1.97915 22.7175 1.97272C22.7254 1.95894 22.7158 1.97172 22.6867 2.01009C22.7363 1.95603 22.6642 2.01319 22.6474 2.02644C22.6393 2.02863 22.6328 2.0318 22.6247 2.03399C22.6709 2.02161 22.6593 2.02181 22.5882 2.03358C22.5953 2.03312 22.6035 2.03093 22.6106 2.03047C22.6501 2.02571 22.6906 2.01923 22.7318 2.01547C23.1952 1.95684 23.6549 1.94433 24.1198 1.99451C24.1454 1.99783 24.1903 2.00765 24.0853 1.99066C24.1082 1.9947 24.1304 1.99604 24.1533 2.00009C24.2002 2.00646 24.246 2.01456 24.2929 2.02094C24.3829 2.03615 24.4719 2.05307 24.5589 2.07345C24.7524 2.11625 24.9443 2.16966 25.133 2.23268C25.2318 2.26446 25.3287 2.29968 25.4262 2.33761C25.4506 2.3471 25.4732 2.35559 25.4976 2.36507C25.5969 2.404 25.4169 2.32992 25.5141 2.3723C25.5681 2.39425 25.6227 2.41892 25.6757 2.4426C25.9135 2.54778 26.1452 2.66774 26.3709 2.79803C26.5517 2.90246 26.8155 2.84344 26.9143 2.65241C27.0131 2.46139 26.9616 2.22035 26.7687 2.10895C26.0528 1.69791 25.2684 1.37366 24.4483 1.24245C23.916 1.15792 23.3839 1.14469 22.8482 1.20522C22.7648 1.21447 22.6803 1.22545 22.5959 1.23642C22.3525 1.26815 22.1569 1.36425 22.0254 1.58004C21.97 1.67208 21.918 1.7661 21.8653 1.8574C21.6226 2.27774 21.3809 2.69636 21.1382 3.11669C20.9562 3.43195 20.7742 3.7472 20.5932 4.06074C20.454 4.30191 20.6311 4.69131 20.9397 4.65814C21.3092 4.61883 21.6765 4.5874 22.049 4.60263C22.1743 4.60837 22.2976 4.61756 22.4207 4.63118C22.5304 4.64401 22.3492 4.61976 22.4401 4.63324C22.4737 4.63882 22.5082 4.64267 22.5417 4.64825C22.6115 4.65868 22.682 4.67182 22.7525 4.68497C23.0688 4.74584 23.3801 4.83136 23.6845 4.94054C23.7796 4.97477 23.8747 5.00899 23.9685 5.04938C23.8809 5.01025 23.9503 5.04116 23.972 5.05137C23.9964 5.06085 24.0215 5.07306 24.0458 5.08254C24.0953 5.10423 24.1448 5.12591 24.1951 5.15032C24.4179 5.2537 24.6348 5.36743 24.8494 5.48903C25.0364 5.59473 25.2844 5.53119 25.3928 5.34342C25.8444 4.56131 26.2949 3.78092 26.7465 2.99882C26.8101 2.88857 26.8738 2.77831 26.9384 2.66634C27.0458 2.48028 26.9789 2.23029 26.7928 2.12288C26.7859 2.1189 26.7773 2.11392 26.7704 2.10995C26.5895 2.00551 26.3258 2.06454 26.227 2.25556C26.1247 2.4446 26.1762 2.68564 26.3709 2.79803Z" fill="#667587"/>
<path d="M33.3089 7.57781L31.8687 10.0723L31.8409 10.0608C30.3128 10.412 29.2761 9.51027 28.2539 8.3367L29.7627 5.72336C30.6902 6.78252 31.6699 7.56409 33.0833 7.20868C33.2858 7.16023 33.4213 7.38314 33.3089 7.57781Z" fill="#667587"/>
<path d="M32.9661 7.37997C32.5454 8.10868 32.1247 8.83738 31.704 9.56609C31.6443 9.66945 31.5846 9.77281 31.525 9.87617C31.673 9.81466 31.8221 9.75142 31.9701 9.6899C31.8778 9.65494 31.7832 9.67155 31.6894 9.69087C31.656 9.69689 31.6244 9.7039 31.5911 9.70992C31.5703 9.71403 31.5479 9.71713 31.5254 9.72024C31.4686 9.73109 31.5864 9.7141 31.5298 9.72051C31.3899 9.73617 31.2512 9.74567 31.1098 9.73985C31.0449 9.73685 30.9811 9.73213 30.9155 9.72641C30.8693 9.72275 30.9438 9.729 30.9455 9.72999C30.9465 9.72827 30.9048 9.72488 30.9014 9.72289C30.8634 9.71704 30.8237 9.71021 30.7868 9.70264C30.6591 9.67715 30.5346 9.64205 30.4134 9.59735C30.389 9.58786 30.3598 9.57096 30.3324 9.56664C30.3324 9.56664 30.4063 9.59781 30.3637 9.5801C30.3506 9.57486 30.3376 9.56962 30.3238 9.56167C30.2612 9.53474 30.2024 9.50536 30.1428 9.47327C30.0261 9.41279 29.9127 9.34271 29.804 9.26845C29.7491 9.23219 29.698 9.19347 29.6458 9.15647C29.5809 9.1098 29.696 9.19691 29.6348 9.14779C29.6033 9.12273 29.5701 9.09667 29.5396 9.06989C29.431 8.97959 29.327 8.88513 29.2241 8.78893C28.9813 8.55691 28.7564 8.30992 28.5362 8.05875C28.557 8.21774 28.5768 8.37845 28.5975 8.53744C29.0381 7.77428 29.4797 7.0094 29.9203 6.24624C29.982 6.13943 30.0447 6.0309 30.1063 5.92409C29.898 5.9508 29.6869 5.97823 29.4785 6.00494C29.8848 6.46691 30.3287 6.91152 30.8538 7.23536C31.3702 7.55422 31.9781 7.73062 32.5858 7.68867C32.7729 7.67495 32.9893 7.66209 33.1687 7.598C33.2152 7.58118 33.1374 7.60058 33.1329 7.60031C33.165 7.60045 33.1633 7.59946 33.125 7.59805C33.1036 7.59944 33.0834 7.59466 33.0654 7.582C33.0129 7.56548 33.0359 7.56953 33.0531 7.57948C33.0228 7.56429 32.9982 7.54321 32.9821 7.5155C32.9625 7.48581 32.9583 7.4811 32.9688 7.49867C32.9862 7.53625 32.9505 7.44677 32.952 7.4522C32.9726 7.52385 32.9508 7.38262 32.9509 7.42629C32.9519 7.46824 32.96 7.37871 32.958 7.38216C32.9396 7.46572 33.0084 7.29874 32.9661 7.37997C32.8696 7.56311 32.9156 7.82165 33.1117 7.92344C33.2976 8.01926 33.5524 7.97573 33.6552 7.77782C33.76 7.57646 33.7882 7.32861 33.6712 7.12552C33.564 6.93728 33.3635 6.80315 33.1404 6.80759C33.0405 6.80961 32.9451 6.83953 32.8495 6.85786C32.8125 6.86633 32.7747 6.87208 32.7359 6.87956C32.7233 6.88148 32.6559 6.8908 32.7053 6.88485C32.7601 6.87745 32.6713 6.88815 32.6614 6.88934C32.5108 6.90348 32.3573 6.90674 32.2066 6.89324C32.1916 6.89145 32.164 6.89157 32.1482 6.88706C32.1578 6.89031 32.2365 6.90127 32.1632 6.88885C32.1297 6.88328 32.0962 6.8777 32.0626 6.87212C31.9877 6.85871 31.914 6.83914 31.8403 6.81956C31.7711 6.80026 31.7048 6.77578 31.6385 6.75131C31.5688 6.72484 31.7149 6.78619 31.6186 6.74209C31.5804 6.72465 31.5405 6.70621 31.5024 6.68877C31.3717 6.62478 31.2469 6.55045 31.1288 6.4685C31.1005 6.44987 31.0715 6.42852 31.0432 6.40989C31.0322 6.4012 30.9296 6.32821 30.9783 6.36321C31.0218 6.39524 30.9426 6.33345 30.9264 6.32178C30.8949 6.29672 30.8645 6.26994 30.833 6.24488C30.5481 6.0023 30.2917 5.73025 30.0448 5.44984C29.8729 5.25416 29.5403 5.31707 29.417 5.53069C28.9764 6.29385 28.5348 7.05873 28.0942 7.82189C28.0325 7.9287 27.9698 8.03723 27.9082 8.14403C27.8167 8.30252 27.8536 8.48922 27.9694 8.62272C28.373 9.08542 28.7994 9.52453 29.2972 9.88772C29.7745 10.2345 30.3171 10.4605 30.904 10.526C31.251 10.5656 31.6035 10.5279 31.9431 10.4529C31.8762 10.4534 31.8076 10.4528 31.7407 10.4533C31.7504 10.4565 31.76 10.4598 31.7686 10.4647C31.9279 10.5269 32.1342 10.4163 32.2138 10.2785C32.6345 9.54975 33.0552 8.82105 33.4759 8.09234C33.5356 7.98898 33.5953 7.88562 33.6549 7.78226C33.7594 7.60137 33.7003 7.3376 33.5093 7.23879C33.3168 7.13456 33.0775 7.18703 32.9661 7.37997Z" fill="#667587"/>
<path d="M30.3211 12.7531L29.0451 14.9633C29.0112 15.0219 28.9605 15.0661 28.9011 15.0893C27.2173 15.7341 26.1329 14.9151 25.1239 13.7583L26.7083 11.014C27.7305 12.1876 28.7682 13.0876 30.2953 12.7382L30.3211 12.7531Z" fill="#667587"/>
<path d="M29.9783 12.5549C29.6451 13.132 29.3119 13.7091 28.9787 14.2862C28.9061 14.412 28.8335 14.5378 28.7609 14.6635C28.744 14.6928 28.7217 14.7235 28.7082 14.7548L28.7022 14.7652C28.6902 14.7582 28.7587 14.7151 28.7045 14.7573C28.7119 14.7524 28.7481 14.7135 28.7656 14.7191C28.7331 14.7118 28.6381 14.7649 28.6035 14.7771C28.4308 14.8335 28.2571 14.8757 28.0781 14.9033C28.0557 14.9064 28.0119 14.9225 28.0907 14.9013C28.0744 14.9057 28.0495 14.9051 28.0325 14.9068C27.994 14.9098 27.9555 14.9128 27.9169 14.9159C27.8382 14.9209 27.758 14.9206 27.6788 14.9185C27.6423 14.9181 27.6051 14.915 27.5696 14.9128C27.5518 14.9118 27.534 14.9107 27.5156 14.9069C27.4978 14.9059 27.4453 14.8893 27.5005 14.9051C27.5601 14.9212 27.4485 14.8958 27.4334 14.894C27.3903 14.8851 27.3472 14.8763 27.304 14.8675C27.2355 14.8509 27.1697 14.8336 27.1025 14.8108C27.0692 14.8008 27.0369 14.7891 27.0046 14.7773C26.9882 14.7701 26.9724 14.7656 26.9559 14.7584C26.9078 14.7421 27.0384 14.7945 26.9707 14.7646C26.818 14.6948 26.672 14.6175 26.5313 14.527C26.4592 14.4808 26.3908 14.4321 26.3217 14.3808C26.3089 14.3711 26.2622 14.3326 26.3107 14.3721C26.3615 14.4152 26.2996 14.3634 26.2885 14.3547C26.2529 14.3249 26.2163 14.2969 26.1816 14.2654C25.9019 14.0258 25.648 13.7575 25.4052 13.4818C25.4259 13.6408 25.4457 13.8015 25.4664 13.9605C25.9279 13.1611 26.3894 12.3618 26.8519 11.5607C26.9186 11.4453 26.9852 11.3299 27.0509 11.2162C26.8425 11.2429 26.6314 11.2703 26.4231 11.297C26.8266 11.7597 27.253 12.1988 27.7508 12.562C28.2281 12.9088 28.7707 13.1348 29.3576 13.2003C29.7046 13.2399 30.0571 13.2022 30.3967 13.1272C30.2958 13.1149 30.196 13.1009 30.0951 13.0886C30.1037 13.0936 30.1123 13.0986 30.1209 13.1036C30.3038 13.2045 30.5646 13.1507 30.6644 12.9579C30.7622 12.7686 30.7137 12.5224 30.5188 12.4145C30.4058 12.3515 30.2995 12.3407 30.1733 12.3643C30.1346 12.3718 30.0965 12.382 30.0588 12.3878C30.0434 12.3904 30.0254 12.3938 30.0101 12.3964C30.002 12.3986 29.9318 12.4087 29.9795 12.4017C30.0254 12.3938 29.9723 12.4022 29.9652 12.4026C29.9437 12.404 29.923 12.4081 29.9015 12.4095C29.8701 12.4121 29.8388 12.4147 29.8074 12.4172C29.7359 12.4218 29.6636 12.4237 29.5915 12.4212C29.5257 12.4199 29.4618 12.4152 29.3979 12.4105C29.3952 12.4112 29.3545 12.4061 29.3545 12.4061C29.3548 12.4016 29.4322 12.4188 29.3695 12.4079C29.336 12.4023 29.3025 12.3967 29.2689 12.3911C29.1412 12.3657 29.0158 12.3323 28.8936 12.2893C28.8614 12.2776 28.8318 12.2651 28.7995 12.2534C28.7559 12.2374 28.8308 12.2668 28.8308 12.2668C28.8197 12.2581 28.803 12.2553 28.7909 12.2484C28.7284 12.2215 28.6695 12.1921 28.609 12.1617C28.4923 12.1012 28.3779 12.0329 28.2691 11.9586C28.2143 11.9223 28.1621 11.8854 28.111 11.8466C28.0274 11.7846 28.1466 11.8764 28.0871 11.8283C28.0591 11.8052 28.0318 11.7848 28.0038 11.7618C27.8951 11.6715 27.7902 11.5787 27.6882 11.4808C27.442 11.2468 27.213 10.9951 26.9886 10.7392C26.8177 10.5418 26.4841 10.6065 26.3608 10.8201C25.8993 11.6194 25.4378 12.4187 24.9753 13.2198C24.9087 13.3352 24.842 13.4506 24.7764 13.5643C24.6849 13.7228 24.7218 13.9095 24.8376 14.043C25.2822 14.5501 25.7799 15.0487 26.383 15.3648C27.0291 15.7057 27.7475 15.7942 28.4607 15.641C28.802 15.567 29.2034 15.4725 29.3946 15.1534C29.45 15.0614 29.502 14.9673 29.5557 14.8743C29.7695 14.5039 29.9834 14.1335 30.1972 13.7632C30.3524 13.4944 30.5085 13.224 30.6637 12.9552C30.7681 12.7743 30.7091 12.5106 30.5181 12.4118C30.329 12.3095 30.0897 12.362 29.9783 12.5549Z" fill="#667587"/>
<path d="M13.5654 15.6688C13.245 15.4838 13.1336 15.068 13.3186 14.7476L21.5489 0.492201C21.7339 0.171777 22.1497 0.0603781 22.4701 0.245375C22.7905 0.430372 22.9071 0.849105 22.7221 1.16953L14.4908 15.4267C14.3058 15.7471 13.8876 15.8548 13.5654 15.6688Z" fill="#667587"/>
<path d="M24.7013 4.94188C24.2497 5.72399 23.7992 6.50438 23.3476 7.28649C23.284 7.39674 23.2203 7.50699 23.1557 7.61897C23.3377 7.57019 23.5171 7.52213 23.6991 7.47335C22.5626 6.82407 21.2807 6.4147 19.9611 6.48433C19.7698 6.49334 19.5805 6.51495 19.3894 6.53557C19.504 6.73495 19.6213 6.93359 19.7359 7.13297C20.1875 6.35086 20.638 5.57048 21.0896 4.78837C21.1532 4.67811 21.2169 4.56786 21.2815 4.45588C21.167 4.52298 21.0534 4.58835 20.9389 4.65545C21.3084 4.61613 21.6757 4.58471 22.0482 4.59994C22.1735 4.60568 22.2969 4.61486 22.4199 4.62848C22.5297 4.64131 22.3484 4.61706 22.4394 4.63055C22.4729 4.63612 22.5075 4.63998 22.541 4.64556C22.6108 4.65598 22.6813 4.66913 22.7518 4.68227C23.0681 4.74314 23.3793 4.82866 23.6838 4.93784C23.7789 4.97207 23.874 5.0063 23.9678 5.04668C23.8801 5.00756 23.9496 5.03846 23.9712 5.04867C23.9956 5.05816 24.0207 5.07036 24.0451 5.07984C24.0946 5.10153 24.1441 5.12322 24.1943 5.14762C24.4172 5.25101 24.634 5.36473 24.8486 5.48634C25.0305 5.58905 25.2933 5.53174 25.3921 5.34072C25.4909 5.14969 25.4404 4.90693 25.2465 4.79726C24.5037 4.37302 23.6942 4.03657 22.8491 3.89316C22.3057 3.79994 21.7587 3.78048 21.2103 3.83133C21.1224 3.84031 21.0355 3.84758 20.9484 3.85928C20.7931 3.87758 20.6779 3.92593 20.5922 4.06248C20.5862 4.07282 20.5802 4.08315 20.5753 4.09177C20.5029 4.21308 20.435 4.33467 20.3644 4.45698C20.1088 4.89972 19.8532 5.34245 19.5976 5.78519C19.4146 6.10217 19.2325 6.41742 19.0495 6.7344C18.9103 6.97558 19.0874 7.36498 19.396 7.33181C19.7655 7.2925 20.1328 7.26107 20.5053 7.2763C20.6306 7.28204 20.754 7.29122 20.877 7.30485C20.9868 7.31767 20.8055 7.29342 20.8965 7.30691C20.93 7.31248 20.9646 7.31634 20.9981 7.32192C21.0679 7.33234 21.1384 7.34549 21.2089 7.35863C21.5252 7.4195 21.8364 7.50503 22.1409 7.6142C22.236 7.64843 22.3311 7.68266 22.4249 7.72305C22.3372 7.68392 22.4067 7.71482 22.4283 7.72503C22.4527 7.73452 22.4778 7.74672 22.5022 7.75621C22.5517 7.77789 22.6012 7.79958 22.6514 7.82398C22.8743 7.92737 23.0911 8.04109 23.3057 8.1627C23.4928 8.26839 23.7408 8.20486 23.8492 8.01708C24.3008 7.23497 24.7513 6.45458 25.2029 5.67247C25.2665 5.56222 25.3302 5.45197 25.3948 5.33999C25.4993 5.15911 25.4402 4.89533 25.2492 4.79653C25.0537 4.69746 24.8127 4.74894 24.7013 4.94188Z" fill="#667587"/>
<path d="M31.526 9.87453C31.0745 10.6566 30.6229 11.4388 30.1704 12.2226C30.1067 12.3328 30.0421 12.4448 29.9784 12.5551C30.1605 12.5063 30.3398 12.4582 30.5219 12.4094C30.4089 12.3465 30.3026 12.3357 30.1764 12.3593C30.1377 12.3668 30.0996 12.377 30.0618 12.3827C30.0465 12.3854 30.0285 12.3887 30.0132 12.3914C30.005 12.3936 29.9349 12.4036 29.9826 12.3967C30.0285 12.3887 29.9754 12.3971 29.9683 12.3976C29.9468 12.399 29.9261 12.4031 29.9046 12.4045C29.8732 12.4071 29.8419 12.4096 29.8105 12.4122C29.739 12.4168 29.6667 12.4187 29.5946 12.4162C29.5288 12.4149 29.4649 12.4102 29.401 12.4054C29.3983 12.4062 29.3576 12.4011 29.3576 12.4011C29.3579 12.3966 29.4352 12.4137 29.3726 12.4028C29.3391 12.3973 29.3056 12.3917 29.272 12.3861C29.1443 12.3606 29.0189 12.3273 28.8967 12.2843C28.8644 12.2725 28.8349 12.2601 28.8026 12.2483C28.759 12.2323 28.8339 12.2618 28.8339 12.2618C28.8228 12.2531 28.8061 12.2503 28.794 12.2434C28.7315 12.2164 28.6726 12.187 28.6121 12.1567C28.4954 12.0962 28.3809 12.0278 28.2722 11.9536C28.2174 11.9173 28.1652 11.8803 28.1141 11.8416C28.0305 11.7795 28.1497 11.8714 28.0902 11.8232C28.0622 11.8002 28.0349 11.7798 28.0069 11.7567C27.8982 11.6664 27.7933 11.5737 27.6913 11.4758C27.4451 11.2418 27.216 10.9901 26.9917 10.7342C27.0124 10.8932 27.0322 11.0539 27.0529 11.2129C27.5045 10.4308 27.9551 9.65039 28.4066 8.86828C28.4703 8.75803 28.5339 8.64777 28.5986 8.5358C28.3902 8.5625 28.1791 8.58994 27.9708 8.61664C28.3743 9.07934 28.8007 9.51845 29.2985 9.88164C29.7759 10.2285 30.3184 10.4544 30.9053 10.5199C31.2523 10.5595 31.6048 10.5218 31.9444 10.4468C31.8776 10.4473 31.809 10.4467 31.7421 10.4472C31.7517 10.4504 31.7613 10.4537 31.7699 10.4586C31.965 10.5345 32.214 10.3659 32.2558 10.1741C32.3044 9.94264 32.1794 9.76937 31.9712 9.68825C31.8789 9.6533 31.7843 9.6699 31.6904 9.68922C31.6571 9.69524 31.6255 9.70226 31.5922 9.70828C31.5714 9.71238 31.549 9.71549 31.5265 9.7186C31.4697 9.72945 31.5875 9.71245 31.5309 9.71886C31.391 9.73452 31.2522 9.74402 31.1109 9.73821C31.046 9.73521 30.9821 9.73048 30.9165 9.72476C30.8704 9.7211 30.9449 9.72736 30.9466 9.72835C30.9476 9.72663 30.9059 9.72324 30.9025 9.72125C30.8645 9.7154 30.8248 9.70856 30.7878 9.701C30.6601 9.67551 30.5357 9.64041 30.4145 9.59571C30.3901 9.58622 30.3608 9.56931 30.3335 9.565C30.3335 9.565 30.4073 9.59617 30.3647 9.57846C30.3517 9.57322 30.3386 9.56798 30.3249 9.56003C30.2623 9.5331 30.2035 9.50372 30.1439 9.47163C30.0272 9.41115 29.9138 9.34107 29.8051 9.26681C29.7502 9.23054 29.699 9.19183 29.6469 9.15483C29.582 9.10816 29.6971 9.19527 29.6358 9.14615C29.6044 9.12109 29.5712 9.09503 29.5407 9.06825C29.432 8.97795 29.3281 8.88348 29.2251 8.78729C28.9824 8.55527 28.7575 8.30827 28.5373 8.05711C28.3664 7.8597 28.0328 7.92434 27.9095 8.13795C27.4579 8.92006 27.0074 9.70045 26.5558 10.4826C26.4922 10.5928 26.4285 10.7031 26.3639 10.815C26.2724 10.9735 26.3093 11.1602 26.4251 11.2937C26.8287 11.7564 27.2551 12.1955 27.7529 12.5587C28.2302 12.9055 28.7728 13.1315 29.3597 13.197C29.7067 13.2366 30.0592 13.1989 30.3988 13.1239C30.2979 13.1116 30.1981 13.0976 30.0972 13.0853C30.1058 13.0903 30.1144 13.0953 30.123 13.1003C30.3111 13.2042 30.5571 13.1441 30.6665 12.9546C31.1181 12.1725 31.5696 11.3904 32.0222 10.6066C32.0858 10.4963 32.1505 10.3843 32.2141 10.2741C32.3186 10.0932 32.2595 9.82944 32.0685 9.73063C31.8768 9.62911 31.6374 9.68159 31.526 9.87453Z" fill="#667587"/>
<path d="M28.2541 8.33703L26.7085 11.0141C25.7575 9.91612 24.8183 8.57908 23.5245 7.83214C23.5159 7.82716 23.5176 7.82816 23.5004 7.81821L25.046 5.14111C25.0632 5.15106 25.0632 5.15106 25.0701 5.15504C26.3639 5.90198 27.3022 7.24075 28.2541 8.33703Z" fill="#667587"/>
<path d="M27.9095 8.13776C27.458 8.91986 27.0074 9.70025 26.5559 10.4824C26.4922 10.5926 26.4285 10.7029 26.3639 10.8148C26.5723 10.7881 26.7833 10.7607 26.9917 10.734C25.984 9.57109 25.0679 8.24971 23.6992 7.47332C23.748 7.65538 23.7961 7.83472 23.8449 8.01678C24.2964 7.23467 24.747 6.45429 25.1985 5.67218C25.2622 5.56193 25.3258 5.45167 25.3905 5.3397C25.2084 5.38848 25.0291 5.43654 24.847 5.48532C25.0117 5.57808 25.1704 5.68118 25.3224 5.7919C25.3617 5.81922 25.4001 5.84826 25.4384 5.8773C25.3634 5.82021 25.4827 5.91204 25.4945 5.92344C25.5599 5.97727 25.6253 6.0311 25.6879 6.08566C25.9767 6.33738 26.2464 6.61023 26.504 6.89216C27.0115 7.44932 27.4757 8.04577 27.9691 8.61545C28.1058 8.77249 28.392 8.77006 28.5321 8.61894C28.6856 8.45259 28.6814 8.22508 28.5356 8.05591C27.5279 6.89302 26.6101 5.57064 25.2431 4.79524C25.0561 4.68955 24.8081 4.75309 24.6997 4.94087C24.2481 5.72297 23.7976 6.50336 23.346 7.28546C23.2824 7.39572 23.2187 7.50597 23.154 7.61795C23.0466 7.804 23.1126 8.05571 23.2997 8.16141C23.4643 8.25417 23.623 8.35727 23.775 8.46799C23.8144 8.49531 23.8527 8.52434 23.8911 8.55338C23.8161 8.4963 23.9353 8.58812 23.9471 8.59952C24.0125 8.65336 24.0779 8.70719 24.1406 8.76175C24.4294 9.01347 24.6991 9.28632 24.9566 9.56825C25.4642 10.1254 25.9283 10.7219 26.4217 11.2915C26.5926 11.4889 26.9272 11.4226 27.0495 11.2107C27.5011 10.4286 27.9517 9.6482 28.4032 8.86609C28.4669 8.75583 28.5305 8.64558 28.5952 8.53361C28.6996 8.35272 28.6406 8.08895 28.4496 7.99015C28.262 7.89333 28.0209 7.94481 27.9095 8.13776Z" fill="#667587"/>
<path d="M29.4183 5.52436C28.9777 6.28752 28.5361 7.0524 28.0955 7.81556C28.0338 7.92237 27.9712 8.0309 27.9095 8.13771C28.1179 8.111 28.3289 8.08357 28.5373 8.05686C27.5296 6.89396 26.6118 5.57157 25.2449 4.79617C25.2936 4.97823 25.3417 5.15757 25.3905 5.33963C25.842 4.55753 26.2926 3.77714 26.7441 2.99503C26.8078 2.88478 26.8714 2.77453 26.9361 2.66255C26.754 2.71133 26.5747 2.75939 26.3926 2.80817C26.5553 2.90438 26.712 3.01093 26.8657 3.12264C26.9041 3.15168 26.9041 3.15168 26.8657 3.12264C26.8844 3.13802 26.9041 3.15168 26.9227 3.16706C26.9601 3.19782 26.9958 3.22759 27.0331 3.25835C27.1061 3.31888 27.1789 3.38385 27.2499 3.44782C27.5278 3.70245 27.7859 3.9755 28.0319 4.25763C28.5297 4.82758 28.9845 5.43237 29.4806 6.00133C29.6173 6.15837 29.9035 6.15594 30.0436 6.00482C30.1971 5.83847 30.1939 5.60924 30.0471 5.44179C29.0261 4.27809 28.1538 2.92458 26.7895 2.12081C26.6044 2.01167 26.3534 2.08038 26.246 2.26643C25.7945 3.04854 25.3439 3.82892 24.8924 4.61103C24.8287 4.72129 24.7651 4.83154 24.7004 4.94351C24.593 5.12957 24.659 5.38128 24.846 5.48698C25.0107 5.57974 25.1694 5.68284 25.3214 5.79356C25.3607 5.82088 25.3991 5.84992 25.4374 5.87896C25.3624 5.82187 25.4817 5.9137 25.4935 5.9251C25.5589 5.97893 25.6243 6.03276 25.6869 6.08732C25.9757 6.33904 26.2454 6.6119 26.503 6.89383C27.0105 7.45099 27.4747 8.04744 27.9681 8.61713C28.1389 8.81453 28.4735 8.74817 28.5959 8.53628C29.0365 7.77312 29.4781 7.00824 29.9187 6.24508C29.9804 6.13827 30.043 6.02974 30.1047 5.92294C30.2091 5.74205 30.1501 5.47828 29.9591 5.37947C29.7707 5.27994 29.5297 5.33142 29.4183 5.52436Z" fill="#667587"/>
<path d="M26.3639 10.815C25.9024 11.6143 25.4409 12.4136 24.9784 13.2147C24.9117 13.3301 24.8451 13.4455 24.7794 13.5592C24.9878 13.5325 25.1989 13.5051 25.4072 13.4784C24.6192 12.5755 23.941 11.5661 23.0294 10.7779C22.7566 10.5423 22.4666 10.3244 22.1568 10.1409C22.2056 10.323 22.2537 10.5023 22.3024 10.6844C22.753 9.90401 23.2036 9.12363 23.6541 8.34324C23.7168 8.23471 23.7804 8.12446 23.8431 8.01593C23.661 8.06471 23.4817 8.11277 23.2996 8.16155C23.4643 8.25432 23.623 8.35742 23.775 8.46814C23.8143 8.49545 23.8527 8.52449 23.891 8.55353C23.816 8.49645 23.9353 8.58827 23.9471 8.59967C24.0125 8.6535 24.0779 8.70733 24.1405 8.76189C24.4293 9.01361 24.699 9.28647 24.9566 9.56839C25.4641 10.1256 25.9283 10.722 26.4217 11.2917C26.5584 11.4487 26.8446 11.4463 26.9847 11.2952C27.1382 11.1288 27.134 10.9013 26.9882 10.7321C25.984 9.57124 25.0678 8.24986 23.6992 7.47347C23.5122 7.36777 23.2641 7.43131 23.1557 7.61909C22.7052 8.39947 22.2546 9.17986 21.8041 9.96024C21.7414 10.0688 21.6777 10.179 21.6151 10.2876C21.5067 10.4753 21.5756 10.7219 21.7607 10.831C21.9234 10.9272 22.0783 11.0328 22.2311 11.1462C22.2694 11.1752 22.2694 11.1752 22.2311 11.1462C22.2497 11.1616 22.2694 11.1752 22.2864 11.1896C22.3237 11.2204 22.3594 11.2502 22.3968 11.2809C22.4698 11.3414 22.5408 11.4054 22.6118 11.4694C22.8915 11.725 23.151 12.0035 23.3994 12.2893C23.8946 12.86 24.3446 13.469 24.8424 14.0389C25.0133 14.2363 25.3469 14.1717 25.4702 13.9581C25.9317 13.1587 26.3932 12.3594 26.8557 11.5584C26.9224 11.4429 26.989 11.3275 27.0547 11.2138C27.1591 11.0329 27.1001 10.7692 26.909 10.6704C26.7163 10.5706 26.4753 10.622 26.3639 10.815Z" fill="#667587"/>
<path d="M10.8898 7.89565L12.4304 10.5641C12.4304 10.5641 12.4442 10.5562 12.4528 10.5512C14.1411 9.57647 15.3683 9.63738 16.1404 9.70154C16.3268 9.71798 16.4371 9.50727 16.3337 9.32811L14.9969 7.0128C14.3107 6.93813 12.8911 6.74707 10.8898 7.89565Z" fill="#667587"/>
<path d="M11.2343 7.69653C11.6849 8.47691 12.1354 9.2573 12.586 10.0377C12.6487 10.1462 12.7123 10.2565 12.775 10.365C12.5929 10.3162 12.4136 10.2682 12.2315 10.2194C12.89 9.83229 13.6185 9.52654 14.3709 9.38157C14.8916 9.2808 15.4202 9.25353 15.9481 9.28868C15.9938 9.29218 16.0367 9.29495 16.0824 9.29844C16.1066 9.30056 16.1332 9.29896 16.1549 9.30478C16.1594 9.30452 16.1638 9.30425 16.1665 9.30498C16.1273 9.30466 16.0896 9.31494 16.0534 9.33583C16.0603 9.33185 16.0655 9.32887 16.0724 9.32489C16.0352 9.34405 16.0057 9.37256 15.9866 9.41113C16.0021 9.38615 16.0074 9.35553 15.9762 9.44474C15.9837 9.422 15.9845 9.37561 15.9736 9.47608C15.9815 9.41412 15.9764 9.49285 15.9779 9.50345C15.9705 9.43884 15.9583 9.51711 15.9874 9.52784C15.9847 9.52711 15.9795 9.51405 15.9775 9.51061C15.9132 9.41911 15.8631 9.3125 15.8074 9.21603C15.5836 8.82842 15.3608 8.44253 15.137 8.05492C14.9749 7.77412 14.8128 7.49332 14.6497 7.21079C14.7642 7.27789 14.8778 7.34326 14.9923 7.41035C14.6228 7.37104 14.2555 7.33961 13.883 7.35484C13.7577 7.36058 13.6343 7.36977 13.5113 7.38339C13.4015 7.39622 13.5828 7.37197 13.4918 7.38545C13.4583 7.39103 13.4237 7.39489 13.3902 7.40046C13.3204 7.41089 13.2499 7.42404 13.1794 7.43718C12.8631 7.49805 12.5519 7.58357 12.2474 7.69275C12.1523 7.72698 12.0572 7.76121 11.9634 7.80159C12.0511 7.76247 11.9816 7.79337 11.96 7.80358C11.9356 7.81307 11.9105 7.82527 11.8861 7.83475C11.8366 7.85644 11.7871 7.87813 11.7369 7.90253C11.514 8.00592 11.2972 8.11964 11.0826 8.24125C10.9007 8.34396 10.6379 8.28666 10.5391 8.09563C10.4403 7.9046 10.4908 7.66184 10.6847 7.55217C11.6438 7.00533 12.6976 6.62658 13.8052 6.56367C14.1249 6.54448 14.443 6.55836 14.7621 6.59C14.8204 6.59542 14.8796 6.60255 14.9379 6.60797C15.1048 6.62647 15.2436 6.66804 15.339 6.81739C15.3743 6.87052 15.4027 6.92764 15.4345 6.98277C15.7647 7.55471 16.0959 8.12837 16.4261 8.70031C16.5127 8.85019 16.6081 8.99953 16.686 9.15438C16.8923 9.56353 16.6402 10.1134 16.1457 10.1003C15.9877 10.0973 15.8305 10.0755 15.6743 10.0716C15.4922 10.0664 15.3086 10.0668 15.1258 10.0804C15.0753 10.0843 15.0247 10.0883 14.9741 10.0922C14.9519 10.0935 14.9307 10.0966 14.9068 10.0989C14.8918 10.1007 14.8767 10.1025 14.8617 10.1043C14.8077 10.1102 14.8812 10.1022 14.8962 10.1004C14.7825 10.1224 14.6674 10.1338 14.5537 10.1557C14.3062 10.2045 14.0615 10.27 13.824 10.3519C13.7585 10.3737 13.6922 10.3982 13.6277 10.4217C13.5937 10.4344 13.5597 10.4471 13.5284 10.4606C13.5137 10.4668 13.4989 10.4731 13.4858 10.4783C13.4302 10.5012 13.5779 10.4389 13.4824 10.4803C13.3391 10.5424 13.1985 10.6052 13.0601 10.6759C12.9121 10.7498 12.7672 10.8289 12.6259 10.9105C12.4409 11.0196 12.1899 10.9509 12.0824 10.7648C11.6319 9.98445 11.1813 9.20406 10.7308 8.42367C10.6681 8.31514 10.6045 8.20489 10.5418 8.09636C10.4374 7.91547 10.4964 7.6517 10.6874 7.55289C10.8819 7.4521 11.1229 7.50358 11.2343 7.69653Z" fill="#667587"/>
<path d="M7.82122 2.53311L7.79883 2.54604L9.34246 5.21968C11.3438 4.0711 12.7634 4.26217 13.4496 4.33684L12.0154 1.85269C11.9706 1.77517 11.892 1.72642 11.813 1.7169C11.1429 1.63057 9.76272 1.41218 7.82122 2.53311Z" fill="#667587"/>
<path d="M8.01914 2.87567C8.01225 2.87964 8.00363 2.88462 7.99674 2.88859C8.04553 2.70654 8.09358 2.52719 8.14236 2.34513C8.59391 3.12724 9.04447 3.90763 9.49602 4.68974C9.55967 4.79999 9.62333 4.91024 9.68798 5.02222C9.50592 4.97343 9.32658 4.92538 9.14452 4.8766C10.281 4.22732 11.563 3.81795 12.8826 3.88758C13.0738 3.89659 13.2632 3.9182 13.4542 3.93882C13.3396 4.1382 13.2223 4.33685 13.1078 4.53622C12.7189 3.86265 12.33 3.18907 11.9411 2.51549C11.8645 2.38284 11.7869 2.24847 11.7103 2.11582C11.7074 2.11065 11.6694 2.05679 11.6725 2.05036C11.6646 2.03658 11.6743 2.04936 11.7033 2.08773C11.6537 2.03366 11.7258 2.09083 11.7426 2.10408C11.7508 2.10627 11.7572 2.10944 11.7653 2.11163C11.7192 2.09925 11.7307 2.09945 11.8019 2.11122C11.7947 2.11076 11.7866 2.10857 11.7794 2.10811C11.7399 2.10335 11.6994 2.09687 11.6582 2.09311C11.1948 2.03447 10.7351 2.02196 10.2702 2.07215C10.2446 2.07547 10.1997 2.08529 10.3047 2.06829C10.2818 2.07234 10.2596 2.07367 10.2367 2.07772C10.1898 2.0841 10.144 2.0922 10.0971 2.09858C10.0071 2.11378 9.91814 2.13071 9.83113 2.15108C9.63763 2.19389 9.44567 2.2473 9.25695 2.31032C9.15815 2.34209 9.06134 2.37731 8.9638 2.41525C8.93942 2.42473 8.91676 2.43322 8.89237 2.44271C8.79311 2.48164 8.97315 2.40756 8.87588 2.44994C8.82194 2.47189 8.76727 2.49656 8.71433 2.52023C8.47645 2.62542 8.24481 2.74537 8.01914 2.87567C7.83825 2.9801 7.57448 2.92107 7.47568 2.73004C7.37687 2.53902 7.42835 2.29798 7.6213 2.18658C8.33721 1.77554 9.12162 1.4513 9.94167 1.32009C10.474 1.23555 11.0061 1.22233 11.5418 1.28286C11.6253 1.29211 11.7097 1.30308 11.7941 1.31406C12.0375 1.34579 12.2331 1.44189 12.3646 1.65768C12.42 1.74972 12.472 1.84374 12.5247 1.93504C12.7674 2.35538 13.0091 2.774 13.2518 3.19434C13.4338 3.50959 13.6158 3.82485 13.7968 4.13838C13.9361 4.37956 13.7589 4.76895 13.4504 4.73578C13.0808 4.69647 12.7136 4.66505 12.3411 4.68027C12.2157 4.68601 12.0924 4.6952 11.9694 4.70882C11.8596 4.72165 12.0409 4.6974 11.9499 4.71088C11.9163 4.71646 11.8818 4.72032 11.8483 4.72589C11.7785 4.73632 11.708 4.74946 11.6375 4.76261C11.3212 4.82348 11.01 4.909 10.7055 5.01818C10.6104 5.05241 10.5153 5.08663 10.4215 5.12702C10.5092 5.08789 10.4397 5.1188 10.418 5.12901C10.3937 5.13849 10.3685 5.1507 10.3442 5.16018C10.2947 5.18187 10.2452 5.20355 10.1949 5.22796C9.97211 5.33134 9.75525 5.44507 9.54064 5.56667C9.35359 5.67237 9.10559 5.60883 8.99717 5.42105C8.54562 4.63895 8.09507 3.85856 7.64352 3.07645C7.57986 2.9662 7.51621 2.85595 7.45156 2.74397C7.34414 2.55792 7.41113 2.30792 7.59718 2.20051C7.60407 2.19653 7.61268 2.19156 7.61957 2.18758C7.80046 2.08314 8.06423 2.14217 8.16304 2.3332C8.26529 2.52223 8.2138 2.76327 8.01914 2.87567Z" fill="#667587"/>
<path d="M1.08108 7.65544L2.52127 10.1499L2.5491 10.1384C4.0772 10.4897 5.11391 9.58791 6.13609 8.41434L4.62727 5.801C3.69982 6.86016 2.72007 7.64173 1.30667 7.28631C1.10414 7.23787 0.968685 7.46078 1.08108 7.65544Z" fill="#667587"/>
<path d="M1.42388 7.45761C1.8446 8.18631 2.26531 8.91502 2.68603 9.64372C2.74571 9.74708 2.80538 9.85044 2.86506 9.95381C2.71699 9.89229 2.56793 9.82905 2.41986 9.76753C2.51223 9.73258 2.60681 9.74918 2.70065 9.7685C2.73399 9.77452 2.7656 9.78154 2.79894 9.78756C2.81968 9.79166 2.84215 9.79477 2.86461 9.79787C2.92141 9.80872 2.80364 9.79173 2.86017 9.79814C3.00014 9.8138 3.13885 9.8233 3.2802 9.81749C3.34508 9.81448 3.40896 9.80976 3.47456 9.80404C3.52069 9.80038 3.4462 9.80663 3.44448 9.80763C3.44348 9.80591 3.48517 9.80251 3.48861 9.80052C3.52658 9.79468 3.56628 9.78784 3.60325 9.78027C3.73095 9.75478 3.85539 9.71969 3.97658 9.67498C4.00097 9.6655 4.03026 9.64859 4.05762 9.64427C4.05762 9.64427 3.98374 9.67544 4.02635 9.65774C4.0394 9.6525 4.05246 9.64726 4.06624 9.6393C4.12879 9.61238 4.18763 9.583 4.24719 9.5509C4.36388 9.49043 4.47731 9.42035 4.58603 9.34609C4.64089 9.30982 4.69204 9.2711 4.74418 9.23411C4.80911 9.18743 4.69403 9.27455 4.75525 9.22542C4.78672 9.20036 4.81991 9.17431 4.85039 9.14752C4.95904 9.05723 5.06299 8.96276 5.16594 8.86657C5.40868 8.63455 5.63359 8.38755 5.85379 8.13638C5.83303 8.29537 5.81327 8.45608 5.79251 8.61507C5.3519 7.85191 4.9103 7.08703 4.46969 6.32387C4.40802 6.21707 4.34536 6.10854 4.2837 6.00173C4.49206 6.02844 4.70314 6.05587 4.9115 6.08258C4.50521 6.54454 4.06135 6.98916 3.53626 7.31299C3.01979 7.63185 2.41188 7.80826 1.80424 7.7663C1.61715 7.75258 1.40071 7.73973 1.22129 7.67563C1.17483 7.65882 1.25264 7.67821 1.25708 7.67794C1.22501 7.67809 1.22673 7.67709 1.26497 7.67569C1.28644 7.67707 1.30665 7.67229 1.3246 7.65963C1.37709 7.64311 1.35416 7.64716 1.33693 7.65711C1.36721 7.64192 1.39179 7.62084 1.40795 7.59313C1.42756 7.56344 1.43173 7.55873 1.4212 7.5763C1.40385 7.61388 1.43947 7.5244 1.43802 7.52984C1.41736 7.60148 1.43919 7.46025 1.43914 7.50392C1.43809 7.54587 1.43004 7.45635 1.43203 7.45979C1.45041 7.54335 1.38157 7.37637 1.42388 7.45761C1.52043 7.64075 1.47445 7.89928 1.27826 8.00107C1.0924 8.09689 0.837579 8.05336 0.734798 7.85545C0.630026 7.65409 0.601781 7.40625 0.718815 7.20316C0.826046 7.01492 1.02654 6.88079 1.2496 6.88522C1.34954 6.88724 1.44491 6.91717 1.54048 6.93549C1.57753 6.94396 1.6153 6.94972 1.65407 6.95719C1.66667 6.95911 1.73407 6.96843 1.68469 6.96248C1.62988 6.95508 1.71876 6.96579 1.72863 6.96698C1.8792 6.98111 2.03268 6.98438 2.18338 6.97087C2.19842 6.96908 2.22606 6.9692 2.24183 6.96469C2.23222 6.96794 2.15356 6.9789 2.22678 6.96649C2.26031 6.96091 2.29384 6.95533 2.32738 6.94975C2.40232 6.93634 2.47601 6.91677 2.5497 6.8972C2.61894 6.87789 2.6852 6.85342 2.75147 6.82894C2.82117 6.80248 2.67513 6.86382 2.77141 6.81972C2.80958 6.80228 2.84946 6.78385 2.88763 6.7664C3.01836 6.70241 3.14312 6.62808 3.26119 6.54613C3.28948 6.5275 3.3185 6.50616 3.34679 6.48752C3.35786 6.47884 3.46042 6.40584 3.41172 6.44085C3.36819 6.47287 3.44737 6.41108 3.4636 6.39941C3.49507 6.37435 3.52555 6.34757 3.55702 6.32251C3.8419 6.07994 4.09828 5.80788 4.34524 5.52748C4.51708 5.3318 4.84972 5.39471 4.97305 5.60833C5.41366 6.37149 5.85526 7.13637 6.29587 7.89952C6.35753 8.00633 6.42019 8.11486 6.48186 8.22167C6.57336 8.38016 6.53644 8.56685 6.42058 8.70036C6.01701 9.16305 5.59064 9.60217 5.09287 9.96535C4.6155 10.3122 4.07295 10.5381 3.48602 10.6037C3.13904 10.6432 2.78654 10.6055 2.44695 10.5306C2.51381 10.531 2.5824 10.5304 2.64927 10.5309C2.63966 10.5341 2.63005 10.5374 2.62144 10.5424C2.46208 10.6045 2.25581 10.4939 2.17624 10.3561C1.75553 9.62738 1.33481 8.89868 0.914092 8.16998C0.854416 8.06661 0.79474 7.96325 0.735064 7.85989C0.63063 7.679 0.689658 7.41523 0.880684 7.31643C1.07317 7.21219 1.31248 7.26466 1.42388 7.45761Z" fill="#667587"/>
<path d="M4.06886 12.8307L5.34493 15.0409C5.37875 15.0995 5.42953 15.1437 5.48885 15.1669C7.17271 15.8117 8.25716 14.9927 9.26608 13.8359L7.68168 11.0917C6.65951 12.2652 5.62181 13.1653 4.0947 12.8158L4.06886 12.8307Z" fill="#667587"/>
<path d="M4.41171 12.6326C4.7449 13.2097 5.0781 13.7868 5.41129 14.3639C5.48389 14.4896 5.5565 14.6154 5.62911 14.7412C5.64601 14.7704 5.66836 14.8012 5.68182 14.8325L5.68779 14.8428C5.69985 14.8358 5.63131 14.7927 5.68553 14.8349C5.67811 14.83 5.64191 14.7912 5.62442 14.7967C5.65695 14.7894 5.75194 14.8425 5.78653 14.8547C5.95925 14.9112 6.13289 14.9533 6.31189 14.9809C6.33436 14.984 6.3781 15.0001 6.2993 14.979C6.31561 14.9833 6.34052 14.9827 6.35756 14.9844C6.39606 14.9874 6.43456 14.9905 6.47307 14.9935C6.5518 14.9986 6.63198 14.9982 6.71118 14.9961C6.74769 14.9957 6.78493 14.9926 6.82045 14.9905C6.83821 14.9894 6.85597 14.9883 6.87446 14.9846C6.89222 14.9835 6.9447 14.967 6.88951 14.9828C6.82987 14.9988 6.94152 14.9734 6.95657 14.9716C6.99971 14.9628 7.04285 14.954 7.08598 14.9451C7.1545 14.9285 7.2203 14.9112 7.28756 14.8885C7.32082 14.8785 7.35309 14.8667 7.38536 14.855C7.40186 14.8477 7.41763 14.8432 7.43413 14.836C7.48217 14.8198 7.35164 14.8721 7.41936 14.8422C7.57202 14.7725 7.71799 14.6951 7.85872 14.6047C7.9308 14.5584 7.99918 14.5098 8.06828 14.4584C8.08107 14.4487 8.12778 14.4103 8.07935 14.4497C8.02846 14.4929 8.09041 14.441 8.10147 14.4323C8.13712 14.4026 8.17376 14.3745 8.20841 14.343C8.48812 14.1034 8.74205 13.8351 8.98484 13.5594C8.96408 13.7184 8.94432 13.8791 8.92356 14.0381C8.46206 13.2388 8.00057 12.4394 7.53808 11.6384C7.47144 11.523 7.4048 11.4075 7.33916 11.2938C7.54752 11.3205 7.7586 11.348 7.96696 11.3747C7.56339 11.8374 7.13702 12.2765 6.63925 12.6397C6.16188 12.9865 5.61934 13.2124 5.03241 13.278C4.68543 13.3175 4.33293 13.2799 3.99333 13.2049C4.09419 13.1926 4.19406 13.1786 4.29492 13.1663C4.2863 13.1712 4.27769 13.1762 4.26908 13.1812C4.0862 13.2822 3.82541 13.2283 3.72562 13.0356C3.62781 12.8463 3.6763 12.6001 3.87124 12.4921C3.98421 12.4292 4.0905 12.4184 4.21668 12.442C4.25545 12.4494 4.2935 12.4596 4.33127 12.4654C4.34658 12.468 4.36461 12.4714 4.37992 12.4741C4.38807 12.4762 4.45819 12.4863 4.41054 12.4794C4.36461 12.4714 4.41769 12.4798 4.42485 12.4803C4.44632 12.4817 4.46707 12.4858 4.48854 12.4871C4.51989 12.4897 4.55123 12.4923 4.58258 12.4949C4.65415 12.4995 4.72645 12.5014 4.79849 12.4988C4.86436 12.4976 4.92824 12.4928 4.99212 12.4881C4.99484 12.4888 5.03553 12.4837 5.03553 12.4837C5.03526 12.4793 4.95787 12.4964 5.02049 12.4855C5.05402 12.4799 5.08755 12.4744 5.12108 12.4688C5.24877 12.4433 5.37421 12.4099 5.4964 12.3669C5.52867 12.3552 5.55822 12.3427 5.59049 12.331C5.63409 12.315 5.55922 12.3445 5.55922 12.3445C5.57028 12.3358 5.58705 12.333 5.59911 12.326C5.66166 12.2991 5.72049 12.2697 5.78106 12.2393C5.89774 12.1789 6.01216 12.1105 6.12089 12.0363C6.17575 12 6.22789 11.963 6.27904 11.9243C6.36265 11.8622 6.2434 11.954 6.30289 11.9059C6.33092 11.8828 6.35821 11.8625 6.38624 11.8394C6.49489 11.7491 6.59983 11.6564 6.70179 11.5585C6.94798 11.3244 7.17706 11.0727 7.40143 10.8169C7.57228 10.6195 7.9059 10.6841 8.02923 10.8977C8.49073 11.6971 8.95222 12.4964 9.41471 13.2974C9.48135 13.4129 9.54799 13.5283 9.61363 13.642C9.70514 13.8005 9.66822 13.9872 9.55236 14.1207C9.10778 14.6277 8.61012 15.1264 8.00703 15.4424C7.36088 15.7833 6.64254 15.8719 5.92929 15.7186C5.58798 15.6446 5.18661 15.5502 4.99546 15.231C4.94002 15.139 4.88804 15.045 4.83433 14.9519C4.62049 14.5816 4.40665 14.2112 4.19281 13.8408C4.03765 13.5721 3.8815 13.3016 3.72634 13.0329C3.62191 12.852 3.68094 12.5882 3.87196 12.4894C4.061 12.3871 4.30032 12.4396 4.41171 12.6326Z" fill="#667587"/>
<path d="M20.8247 15.7459C21.1451 15.5609 21.2565 15.1452 21.0715 14.8248L12.8412 0.569349C12.6562 0.248926 12.2405 0.137527 11.92 0.322524C11.5996 0.507521 11.483 0.926253 11.668 1.24668L19.8994 15.5038C20.0844 15.8242 20.5026 15.9319 20.8247 15.7459Z" fill="#667587"/>
<path d="M9.68871 5.01952C10.1403 5.80163 10.5908 6.58202 11.0424 7.36413C11.106 7.47438 11.1697 7.58463 11.2343 7.69661C11.0523 7.64783 10.8729 7.59977 10.6909 7.55099C11.8274 6.90171 13.1093 6.49234 14.4289 6.56197C14.6202 6.57098 14.8095 6.59259 15.0006 6.61321C14.886 6.81259 14.7687 7.01124 14.6541 7.21061C14.2026 6.4285 13.752 5.64812 13.3005 4.866C13.2368 4.75575 13.1731 4.6455 13.1085 4.53352C13.223 4.60062 13.3366 4.66599 13.4511 4.73308C13.0816 4.69377 12.7143 4.66234 12.3418 4.67757C12.2165 4.68331 12.0932 4.6925 11.9701 4.70612C11.8604 4.71895 12.0416 4.6947 11.9506 4.70818C11.9171 4.71376 11.8826 4.71762 11.849 4.72319C11.7792 4.73362 11.7087 4.74676 11.6382 4.75991C11.3219 4.82078 11.0107 4.9063 10.7062 5.01548C10.6111 5.04971 10.516 5.08393 10.4222 5.12432C10.5099 5.08519 10.4404 5.1161 10.4188 5.12631C10.3944 5.13579 10.3693 5.148 10.3449 5.15748C10.2954 5.17917 10.2459 5.20085 10.1957 5.22526C9.97284 5.32864 9.75597 5.44237 9.54136 5.56398C9.35948 5.66669 9.0967 5.60938 8.9979 5.41836C8.8991 5.22733 8.94958 4.98456 9.14352 4.87489C9.88628 4.45066 10.6958 4.11421 11.541 3.97079C12.0843 3.87757 12.6313 3.85811 13.1797 3.90897C13.2676 3.91795 13.3545 3.92521 13.4416 3.93692C13.5969 3.95522 13.7121 4.00356 13.7979 4.14012C13.8038 4.15046 13.8098 4.16079 13.8148 4.1694C13.8871 4.29072 13.955 4.41231 14.0256 4.53462C14.2812 4.97736 14.5368 5.42009 14.7925 5.86283C14.9755 6.17981 15.1575 6.49506 15.3405 6.81204C15.4797 7.05322 15.3026 7.44262 14.994 7.40945C14.6245 7.37014 14.2572 7.33871 13.8847 7.35394C13.7594 7.35968 13.6361 7.36886 13.513 7.38249C13.4033 7.39531 13.5845 7.37107 13.4935 7.38455C13.46 7.39012 13.4255 7.39398 13.3919 7.39956C13.3221 7.40998 13.2516 7.42313 13.1811 7.43627C12.8648 7.49714 12.5536 7.58267 12.2491 7.69184C12.154 7.72607 12.0589 7.7603 11.9651 7.80068C12.0528 7.76156 11.9833 7.79246 11.9617 7.80267C11.9373 7.81216 11.9122 7.82436 11.8878 7.83384C11.8383 7.85553 11.7888 7.87722 11.7386 7.90162C11.5157 8.00501 11.2989 8.11873 11.0843 8.24034C10.8972 8.34603 10.6492 8.28249 10.5408 8.09472C10.0893 7.31261 9.63869 6.53222 9.18714 5.75011C9.12349 5.63986 9.05983 5.5296 8.99518 5.41763C8.89075 5.23674 8.94978 4.97297 9.1408 4.87416C9.33627 4.77509 9.57731 4.82657 9.68871 5.01952Z" fill="#667587"/>
<path d="M2.86412 9.95216C3.31567 10.7343 3.76722 11.5164 4.21976 12.3002C4.28342 12.4105 4.34807 12.5224 4.41172 12.6327C4.22966 12.5839 4.05032 12.5359 3.86826 12.4871C3.98123 12.4241 4.08752 12.4133 4.21371 12.4369C4.25248 12.4444 4.29052 12.4546 4.3283 12.4604C4.34361 12.463 4.36163 12.4664 4.37694 12.469C4.38509 12.4712 4.45521 12.4813 4.40756 12.4743C4.36163 12.4664 4.41472 12.4748 4.42188 12.4752C4.44335 12.4766 4.46409 12.4807 4.48556 12.4821C4.51691 12.4847 4.54826 12.4873 4.5796 12.4898C4.65118 12.4944 4.72348 12.4963 4.79551 12.4938C4.86138 12.4925 4.92527 12.4878 4.98915 12.4831C4.99187 12.4838 5.03256 12.4787 5.03256 12.4787C5.03229 12.4742 4.95489 12.4914 5.01751 12.4805C5.05104 12.4749 5.08458 12.4693 5.11811 12.4637C5.2458 12.4383 5.37124 12.4049 5.49343 12.3619C5.5257 12.3502 5.55525 12.3377 5.58752 12.3259C5.63112 12.31 5.55624 12.3394 5.55624 12.3394C5.56731 12.3307 5.58407 12.3279 5.59613 12.321C5.65868 12.2941 5.71752 12.2647 5.77808 12.2343C5.89477 12.1738 6.00919 12.1055 6.11792 12.0312C6.17278 11.9949 6.22492 11.9579 6.27607 11.9192C6.35968 11.8572 6.24042 11.949 6.29992 11.9009C6.32794 11.8778 6.35524 11.8574 6.38327 11.8344C6.49192 11.7441 6.59686 11.6513 6.69882 11.5534C6.945 11.3194 7.17409 11.0677 7.39846 10.8118C7.3777 10.9708 7.35794 11.1315 7.33718 11.2905C6.88563 10.5084 6.43508 9.72802 5.98353 8.94591C5.91987 8.83566 5.85622 8.72541 5.79157 8.61343C5.99993 8.64014 6.21101 8.66757 6.41937 8.69428C6.0158 9.15697 5.58943 9.59608 5.09166 9.95927C4.61429 10.3061 4.07175 10.532 3.48481 10.5976C3.13783 10.6371 2.78533 10.5995 2.44574 10.5245C2.51261 10.5249 2.5812 10.5244 2.64806 10.5248C2.63845 10.5281 2.62885 10.5313 2.62023 10.5363C2.42516 10.6122 2.17619 10.4435 2.13438 10.2517C2.08573 10.0203 2.21079 9.847 2.41892 9.76589C2.51129 9.73094 2.60586 9.74754 2.69971 9.76686C2.73305 9.77288 2.76466 9.77989 2.79799 9.78591C2.81874 9.79002 2.8412 9.79312 2.86367 9.79623C2.92047 9.80708 2.8027 9.79009 2.85923 9.7965C2.9992 9.81216 3.1379 9.82166 3.27926 9.81585C3.34413 9.81284 3.40802 9.80812 3.47362 9.8024C3.51975 9.79874 3.44526 9.80499 3.44354 9.80599C3.44254 9.80426 3.48423 9.80087 3.48767 9.79888C3.52564 9.79304 3.56534 9.7862 3.60231 9.77863C3.73001 9.75314 3.85445 9.71805 3.97564 9.67334C4.00003 9.66386 4.02931 9.64695 4.05668 9.64263C4.05668 9.64263 3.9828 9.6738 4.02541 9.65609C4.03846 9.65086 4.05151 9.64562 4.0653 9.63766C4.12785 9.61073 4.18668 9.58136 4.24625 9.54926C4.36293 9.48879 4.47636 9.4187 4.58509 9.34445C4.63995 9.30818 4.6911 9.26946 4.74324 9.23246C4.80817 9.18579 4.69309 9.27291 4.75431 9.22378C4.78578 9.19872 4.81897 9.17267 4.84944 9.14588C4.9581 9.05559 5.06205 8.96112 5.165 8.86493C5.40774 8.6329 5.63265 8.38591 5.85285 8.13474C6.0237 7.93733 6.35732 8.00197 6.48065 8.21559C6.9322 8.9977 7.38276 9.77808 7.83431 10.5602C7.89796 10.6704 7.96161 10.7807 8.02626 10.8927C8.11777 11.0512 8.08085 11.2379 7.96498 11.3714C7.56142 11.8341 7.13504 12.2732 6.63727 12.6364C6.15991 12.9832 5.61736 13.2091 5.03043 13.2747C4.68345 13.3142 4.33095 13.2765 3.99135 13.2016C4.09221 13.1893 4.19208 13.1753 4.29294 13.163C4.28432 13.1679 4.27571 13.1729 4.2671 13.1779C4.07905 13.2818 3.83304 13.2218 3.72363 13.0323C3.27208 12.2501 2.82053 11.468 2.36799 10.6842C2.30434 10.574 2.23969 10.462 2.17603 10.3517C2.0716 10.1708 2.13063 9.90707 2.32165 9.80827C2.5134 9.70675 2.75272 9.75922 2.86412 9.95216Z" fill="#667587"/>
<path d="M6.13603 8.41465L7.68164 11.0917C8.63259 9.99372 9.57186 8.65669 10.8656 7.90975C10.8742 7.90478 10.8725 7.90577 10.8897 7.89582L9.34412 5.21875C9.32689 5.2287 9.32689 5.2287 9.32 5.23267C8.02625 5.97962 7.08797 7.31837 6.13603 8.41465Z" fill="#667587"/>
<path d="M6.48061 8.21541C6.93216 8.99752 7.38272 9.7779 7.83428 10.56C7.89793 10.6703 7.96159 10.7805 8.02624 10.8925C7.81787 10.8658 7.60679 10.8384 7.39843 10.8116C8.4061 9.64875 9.32226 8.32736 10.6909 7.55096C10.6421 7.73302 10.5941 7.91237 10.5453 8.09443C10.0937 7.31232 9.64316 6.53193 9.19161 5.74982C9.12795 5.63957 9.0643 5.52931 8.99965 5.41734C9.18171 5.46612 9.36105 5.51418 9.54311 5.56296C9.37846 5.65572 9.21977 5.75882 9.06779 5.86954C9.02843 5.89686 8.99007 5.9259 8.95171 5.95494C9.02671 5.89785 8.90745 5.98968 8.89566 6.00108C8.83026 6.05491 8.76487 6.10874 8.7022 6.1633C8.41341 6.41502 8.14371 6.68788 7.88614 6.96981C7.37862 7.52697 6.91446 8.12342 6.42106 8.6931C6.28432 8.85014 5.9981 8.84771 5.85802 8.6966C5.70455 8.53024 5.70872 8.30273 5.85453 8.13357C6.86219 6.97067 7.78008 5.64828 9.14699 4.87288C9.33404 4.76719 9.58204 4.83073 9.69045 5.0185C10.142 5.80061 10.5926 6.581 11.0441 7.36311C11.1078 7.47336 11.1714 7.58361 11.2361 7.69559C11.3435 7.88164 11.2775 8.13336 11.0905 8.23905C10.9258 8.33182 10.7671 8.43492 10.6151 8.54564C10.5758 8.57295 10.5374 8.60199 10.4991 8.63103C10.5741 8.57395 10.4548 8.66577 10.443 8.67717C10.3776 8.731 10.3122 8.78484 10.2495 8.8394C9.96075 9.09112 9.69105 9.36397 9.43349 9.6459C8.92597 10.2031 8.4618 10.7995 7.9684 11.3692C7.79755 11.5666 7.46293 11.5002 7.3406 11.2883C6.88904 10.5062 6.43849 9.72585 5.98693 8.94374C5.92328 8.83349 5.85962 8.72324 5.79497 8.61126C5.69054 8.43038 5.74957 8.1666 5.94059 8.0678C6.12817 7.97098 6.36922 8.02246 6.48061 8.21541Z" fill="#667587"/>
<path d="M4.97181 5.602C5.41242 6.36516 5.85403 7.13004 6.29464 7.8932C6.3563 8.00001 6.41896 8.10854 6.48063 8.21534C6.27227 8.18864 6.06119 8.1612 5.85283 8.1345C6.86049 6.9716 7.77837 5.64921 9.14528 4.87381C9.0965 5.05587 9.04844 5.23521 8.99966 5.41727C8.54811 4.63516 8.09755 3.85478 7.646 3.07267C7.58235 2.96242 7.51869 2.85216 7.45404 2.74019C7.6361 2.78897 7.81544 2.83702 7.9975 2.88581C7.83484 2.98202 7.67815 3.08856 7.52444 3.20028C7.48607 3.22932 7.48607 3.22932 7.52444 3.20028C7.50575 3.21566 7.48607 3.22932 7.46739 3.2447C7.43002 3.27546 7.39438 3.30523 7.35701 3.33599C7.284 3.39651 7.21126 3.46148 7.14024 3.52546C6.86232 3.78009 6.60422 4.05314 6.35824 4.33526C5.86041 4.90521 5.40565 5.51001 4.90954 6.07897C4.77281 6.236 4.48659 6.23358 4.34651 6.08246C4.19304 5.9161 4.19621 5.68687 4.34301 5.51943C5.364 4.35573 6.23634 3.00221 7.60066 2.19845C7.78571 2.08931 8.0367 2.15801 8.14412 2.34407C8.59567 3.12618 9.04623 3.90656 9.49778 4.68867C9.56143 4.79892 9.62509 4.90918 9.68974 5.02115C9.79715 5.20721 9.73116 5.45892 9.54412 5.56462C9.37947 5.65738 9.22078 5.76048 9.06879 5.8712C9.02944 5.89852 8.99108 5.92756 8.95271 5.95659C9.02771 5.89951 8.90846 5.99133 8.89666 6.00274C8.83127 6.05657 8.76588 6.1104 8.70321 6.16496C8.41442 6.41668 8.14472 6.68954 7.88715 6.97147C7.37963 7.52863 6.91547 8.12508 6.42207 8.69476C6.25122 8.89217 5.9166 8.82581 5.79426 8.61391C5.35365 7.85076 4.91205 7.08587 4.47144 6.32271C4.40977 6.21591 4.34711 6.10738 4.28545 6.00057C4.18101 5.81968 4.24004 5.55591 4.43107 5.45711C4.61938 5.35757 4.86042 5.40906 4.97181 5.602Z" fill="#667587"/>
<path d="M8.02629 10.8926C8.48779 11.692 8.94929 12.4913 9.41178 13.2923C9.47842 13.4078 9.54506 13.5232 9.6107 13.6369C9.40234 13.6102 9.19126 13.5827 8.9829 13.556C9.77089 12.6532 10.4491 11.6437 11.3607 10.8556C11.6336 10.62 11.9235 10.402 12.2333 10.2186C12.1845 10.4006 12.1365 10.58 12.0877 10.762C11.6371 9.98165 11.1866 9.20127 10.736 8.42088C10.6734 8.31235 10.6097 8.2021 10.547 8.09357C10.7291 8.14235 10.9084 8.19041 11.0905 8.23919C10.9259 8.33195 10.7672 8.43505 10.6152 8.54577C10.5758 8.57309 10.5375 8.60213 10.4991 8.63117C10.5741 8.57408 10.4548 8.66591 10.443 8.67731C10.3777 8.73114 10.3123 8.78497 10.2496 8.83953C9.9608 9.09125 9.6911 9.3641 9.43353 9.64603C8.92602 10.2032 8.46185 10.7996 7.96846 11.3693C7.83172 11.5264 7.5455 11.5239 7.40543 11.3728C7.25196 11.2065 7.25612 10.979 7.40193 10.8098C8.40615 9.64888 9.32231 8.3275 10.6909 7.5511C10.878 7.44541 11.126 7.50895 11.2344 7.69672C11.685 8.47711 12.1355 9.25749 12.5861 10.0379C12.6487 10.1464 12.7124 10.2567 12.775 10.3652C12.8835 10.553 12.8145 10.7995 12.6294 10.9086C12.4668 11.0049 12.3118 11.1104 12.1591 11.2238C12.1207 11.2529 12.1207 11.2529 12.1591 11.2238C12.1404 11.2392 12.1207 11.2529 12.1038 11.2673C12.0664 11.298 12.0307 11.3278 11.9934 11.3586C11.9204 11.4191 11.8493 11.4831 11.7783 11.547C11.4987 11.8027 11.2391 12.0811 10.9907 12.367C10.4956 12.9377 10.0455 13.5466 9.5477 14.1166C9.37685 14.314 9.04323 14.2493 8.91989 14.0357C8.4584 13.2364 7.9969 12.4371 7.53441 11.636C7.46777 11.5206 7.40113 11.4052 7.33548 11.2915C7.23105 11.1106 7.29008 10.8468 7.4811 10.748C7.67385 10.6482 7.91489 10.6997 8.02629 10.8926Z" fill="#667587"/>
</svg>
