<svg width="16" height="16" viewBox="0 0 16 16" fill="none" xmlns="http://www.w3.org/2000/svg">
<path d="M5.4757 12.085L5.86842 13.106C4.7266 13.3225 3.86023 14.3272 3.86023 15.531V15.9998H14.1311V15.531C14.1311 14.1698 13.0236 13.0623 11.6623 13.0623H11.5227L11.1468 12.085H5.4757Z" fill="#F6F7F8"/>
<path d="M13.4644 7.77328V0H9.8015L8.59409 1.20741C7.60146 0.422125 6.19011 0.347063 5.11539 1.05922L4.90555 1.19825L4.90552 2.37072L8.08518 5.6495H9.35678L9.49581 5.43966C10.232 4.32853 10.1269 2.85769 9.26553 1.86169L10.1898 0.9375H12.5269V7.34716L13.4644 7.77328Z" fill="#F6F7F8"/>
<path d="M14.5581 9.3L12.1976 8.2271H6.42357L3.76294 5.97579C3.31626 5.59782 2.76197 5.39551 2.18338 5.39551C2.11444 5.39551 2.04519 5.39838 1.97572 5.40416C1.32313 5.45854 0.730755 5.76382 0.307786 6.26372L0.00500488 6.62157L5.35379 11.1475H11.5651L15.5815 12.9731L15.7754 12.5464C16.3348 11.3157 15.7887 9.85937 14.5581 9.3Z" fill="#F6F7F8"/>
</svg>
